# xmcd CD database file
#
# Track frame offsets:
#	150
#	37210
#	48712
#	66035
#	91755
#	125055
#	146025
#
# Disc length: 2466 seconds
#
# Revision: 0
# Processed by: cddbd v1.5.2PL0 Copyright (c) Steve Scherf et al.
# Submitted via: CDex 1.99.1
#
DISCID=6909a007
DTITLE=Marsalis, Wynton (1961) - Wynton Marsalis 1982 - Wynton Marsalis
DYEAR=1982
DGENRE=Jazz
TTITLE0=Father Time
TTITLE1=I'll Be There When The Time Comes
TTITLE2=RJ
TTITLE3=Hesitation
TTITLE4=Sister Cheryl
TTITLE5=Who Can I Turn To (When Nobody Needs Me)
TTITLE6=Twilight
EXTD=YEAR: 1982
EXTT0=
EXTT1=
EXTT2=
EXTT3=
EXTT4=
EXTT5=
EXTT6=
PLAYORDER=
